<?xml version="1.0" encoding="UTF-8" standalone="no"?>
<!DOCTYPE svg PUBLIC "-//W3C//DTD SVG 1.1//EN"
 "http://www.w3.org/Graphics/SVG/1.1/DTD/svg11.dtd">
<!-- Generated by graphviz version 2.38.0 (20140413.2041)
 -->
<!-- Title: ClassDiagram Pages: 1 -->
<svg width="1186pt" height="371pt"
 viewBox="0.00 0.00 1185.50 371.00" xmlns="http://www.w3.org/2000/svg" xmlns:xlink="http://www.w3.org/1999/xlink">
<g id="graph0" class="graph" transform="scale(1 1) rotate(0) translate(4 367)">
<title>ClassDiagram</title>
<polygon fill="white" stroke="none" points="-4,4 -4,-367 1181.5,-367 1181.5,4 -4,4"/>
<!-- 988764981 -->
<g id="node1" class="node"><title>988764981</title>
<polygon fill="none" stroke="black" points="0,-310.5 0,-346.5 58,-346.5 58,-310.5 0,-310.5"/>
<text text-anchor="middle" x="29" y="-326" font-family="Times" font-size="10.00">ParseError</text>
</g>
<!-- 594532283 -->
<g id="node6" class="node"><title>594532283</title>
<polygon fill="none" stroke="black" points="38,-120.5 38,-210.5 148,-210.5 148,-120.5 38,-120.5"/>
<text text-anchor="middle" x="93" y="-198.5" font-family="Times" font-size="10.00">LmuException</text>
<polyline fill="none" stroke="black" points="38,-191.5 148,-191.5 "/>
<text text-anchor="start" x="46" y="-179.5" font-family="Times" font-size="10.00">&#45; line : int</text>
<text text-anchor="start" x="46" y="-168.5" font-family="Times" font-size="10.00">&#45; suggestion : string</text>
<polyline fill="none" stroke="black" points="38,-161.5 148,-161.5 "/>
<text text-anchor="start" x="46" y="-149.5" font-family="Times" font-size="10.00">+ setLine(int) : void</text>
<text text-anchor="start" x="46" y="-138.5" font-family="Times" font-size="10.00">+ getLine() : int</text>
<text text-anchor="start" x="46" y="-127.5" font-family="Times" font-size="10.00">+ getMessage() : string</text>
</g>
<!-- 988764981&#45;&gt;594532283 -->
<g id="edge4" class="edge"><title>988764981&#45;&gt;594532283</title>
<path fill="none" stroke="black" d="M35.8491,-310.27C44.3532,-288.877 59.259,-251.38 71.7158,-220.043"/>
<polygon fill="none" stroke="black" points="75.0516,-221.126 75.4932,-210.541 68.5467,-218.54 75.0516,-221.126"/>
</g>
<!-- &#45;1146398326 -->
<g id="node2" class="node"><title>&#45;1146398326</title>
<polygon fill="none" stroke="black" points="258.5,-310.5 258.5,-346.5 337.5,-346.5 337.5,-310.5 258.5,-310.5"/>
<text text-anchor="middle" x="298" y="-326" font-family="Times" font-size="10.00">ModelExporter</text>
</g>
<!-- &#45;119390394 -->
<g id="node3" class="node"><title>&#45;119390394</title>
<polygon fill="none" stroke="black" points="76,-304 76,-353 240,-353 240,-304 76,-304"/>
<text text-anchor="middle" x="158" y="-341" font-family="Times" font-size="10.00">ModelException</text>
<polyline fill="none" stroke="black" points="76,-334 240,-334 "/>
<text text-anchor="start" x="84" y="-322" font-family="Times" font-size="10.00">+ getModelElementsInvolved() : set</text>
<text text-anchor="start" x="84" y="-311" font-family="Times" font-size="10.00">+ getMessage() : string</text>
</g>
<!-- &#45;119390394&#45;&gt;594532283 -->
<g id="edge5" class="edge"><title>&#45;119390394&#45;&gt;594532283</title>
<path fill="none" stroke="black" d="M148.409,-303.744C139.557,-281.818 126.092,-248.466 114.652,-220.13"/>
<polygon fill="none" stroke="black" points="117.849,-218.699 110.86,-210.737 111.358,-221.32 117.849,-218.699"/>
</g>
<!-- 2080559107 -->
<g id="node4" class="node"><title>2080559107</title>
<polygon fill="none" stroke="black" points="356,-310.5 356,-346.5 410,-346.5 410,-310.5 356,-310.5"/>
<text text-anchor="middle" x="383" y="-326" font-family="Times" font-size="10.00">Entity</text>
</g>
<!-- 1173726614 -->
<g id="node5" class="node"><title>1173726614</title>
<polygon fill="none" stroke="black" points="428.5,-309.5 428.5,-347.5 603.5,-347.5 603.5,-309.5 428.5,-309.5"/>
<text text-anchor="middle" x="516" y="-335.5" font-family="Times" font-size="10.00">JarFileAnalyser</text>
<polyline fill="none" stroke="black" points="428.5,-328.5 603.5,-328.5 "/>
<text text-anchor="start" x="436.5" y="-316.5" font-family="Times" font-size="10.00">+ createModelFromJar(string) : IModel</text>
</g>
<!-- 1202657996 -->
<g id="node7" class="node"><title>1202657996</title>
<polygon fill="none" stroke="black" points="412,-91.5 412,-239.5 620,-239.5 620,-91.5 412,-91.5"/>
<text text-anchor="middle" x="516" y="-227.5" font-family="Times" font-size="10.00">ClassesAnalyzer</text>
<polyline fill="none" stroke="black" points="412,-220.5 620,-220.5 "/>
<text text-anchor="start" x="420" y="-208.5" font-family="Times" font-size="10.00">+ createModelFromClasses(sequence) : IModel</text>
<text text-anchor="start" x="420" y="-197.5" font-family="Times" font-size="10.00"># createModel() : IModel</text>
<text text-anchor="start" x="420" y="-186.5" font-family="Times" font-size="10.00"># fillPrimitiveMap(IModel) : void</text>
<text text-anchor="start" x="420" y="-175.5" font-family="Times" font-size="10.00">+ computeEntityName(class) : string</text>
<text text-anchor="start" x="420" y="-164.5" font-family="Times" font-size="10.00">+ computeEntityNamespace(class) : string</text>
<text text-anchor="start" x="420" y="-153.5" font-family="Times" font-size="10.00"># initInheritance(class, Entity, IModel) : void</text>
<text text-anchor="start" x="420" y="-142.5" font-family="Times" font-size="10.00"># getEntity(IModel, class) : Entity</text>
<text text-anchor="start" x="420" y="-131.5" font-family="Times" font-size="10.00"># initAttributes(class, Entity, IModel) : void</text>
<text text-anchor="start" x="420" y="-120.5" font-family="Times" font-size="10.00"># initOperations(class, Entity, IModel) : void</text>
<text text-anchor="start" x="420" y="-109.5" font-family="Times" font-size="10.00"># getVisibility(Member) : Visibility</text>
<text text-anchor="start" x="420" y="-98.5" font-family="Times" font-size="10.00"># fillModel(IModel) : void</text>
</g>
<!-- 1173726614&#45;&gt;1202657996 -->
<g id="edge3" class="edge"><title>1173726614&#45;&gt;1202657996</title>
<path fill="none" stroke="black" stroke-dasharray="5,2" d="M516,-309.344C516,-294.511 516,-272.4 516,-249.981"/>
<polygon fill="none" stroke="black" points="519.5,-249.683 516,-239.683 512.5,-249.683 519.5,-249.683"/>
</g>
<!-- &#45;809373649 -->
<g id="node9" class="node"><title>&#45;809373649</title>
<polygon fill="none" stroke="black" points="63.5,-0.5 63.5,-36.5 122.5,-36.5 122.5,-0.5 63.5,-0.5"/>
<text text-anchor="middle" x="93" y="-16" font-family="Times" font-size="10.00">Exception</text>
</g>
<!-- 594532283&#45;&gt;&#45;809373649 -->
<g id="edge1" class="edge"><title>594532283&#45;&gt;&#45;809373649</title>
<path fill="none" stroke="black" stroke-dasharray="5,2" d="M93,-120.207C93,-96.3456 93,-67.6541 93,-47.0102"/>
<polygon fill="none" stroke="black" points="96.5001,-46.7341 93,-36.7342 89.5001,-46.7342 96.5001,-46.7341"/>
</g>
<!-- &#45;1993902406 -->
<g id="node8" class="node"><title>&#45;1993902406</title>
<polygon fill="none" stroke="black" points="622,-310.5 622,-346.5 676,-346.5 676,-310.5 622,-310.5"/>
<text text-anchor="middle" x="649" y="-326" font-family="Times" font-size="10.00">Member</text>
</g>
<!-- &#45;360169678 -->
<g id="node10" class="node"><title>&#45;360169678</title>
<polygon fill="none" stroke="black" points="694,-310.5 694,-346.5 750,-346.5 750,-310.5 694,-310.5"/>
<text text-anchor="middle" x="722" y="-326" font-family="Times" font-size="10.00">Visibility</text>
</g>
<!-- 1961538739 -->
<g id="node11" class="node"><title>1961538739</title>
<polygon fill="none" stroke="black" points="768,-141 768,-190 980,-190 980,-141 768,-141"/>
<text text-anchor="middle" x="874" y="-178" font-family="Times" font-size="10.00">LmuCore</text>
<polyline fill="none" stroke="black" points="768,-171 980,-171 "/>
<text text-anchor="start" x="776" y="-159" font-family="Times" font-size="10.00">+ analyzeJar(string, string, string) : void</text>
<text text-anchor="start" x="776" y="-148" font-family="Times" font-size="10.00">+ analyzeClasses(sequence, string, string) : void</text>
</g>
<!-- 1590882479 -->
<g id="node12" class="node"><title>1590882479</title>
<polygon fill="none" stroke="black" points="768,-294.5 768,-362.5 980,-362.5 980,-294.5 768,-294.5"/>
<text text-anchor="middle" x="874" y="-350.5" font-family="Times" font-size="10.00">LmuCoreController</text>
<polyline fill="none" stroke="black" points="768,-343.5 980,-343.5 "/>
<text text-anchor="start" x="776" y="-331.5" font-family="Times" font-size="10.00">&#45; modelExporter : ModelExporter</text>
<polyline fill="none" stroke="black" points="768,-324.5 980,-324.5 "/>
<text text-anchor="start" x="776" y="-312.5" font-family="Times" font-size="10.00">+ analyzeJar(string, string, string) : void</text>
<text text-anchor="start" x="776" y="-301.5" font-family="Times" font-size="10.00">+ analyzeClasses(sequence, string, string) : void</text>
</g>
<!-- 1590882479&#45;&gt;1961538739 -->
<g id="edge2" class="edge"><title>1590882479&#45;&gt;1961538739</title>
<path fill="none" stroke="black" stroke-dasharray="5,2" d="M874,-294.141C874,-266.82 874,-228.314 874,-200.753"/>
<polygon fill="none" stroke="black" points="877.5,-200.408 874,-190.408 870.5,-200.408 877.5,-200.408"/>
</g>
<!-- &#45;2130522016 -->
<g id="node13" class="node"><title>&#45;2130522016</title>
<polygon fill="none" stroke="black" points="998,-310.5 998,-346.5 1052,-346.5 1052,-310.5 998,-310.5"/>
<text text-anchor="middle" x="1025" y="-326" font-family="Times" font-size="10.00">IModel</text>
</g>
<!-- 881125708 -->
<g id="node14" class="node"><title>881125708</title>
<polygon fill="none" stroke="black" points="1070.5,-310.5 1070.5,-346.5 1177.5,-346.5 1177.5,-310.5 1070.5,-310.5"/>
<text text-anchor="middle" x="1124" y="-326" font-family="Times" font-size="10.00">NamedModelElement</text>
</g>
</g>
</svg>
